<svg width="39.000122" height="43.000000" viewBox="0 0 39.0001 43" fill="none" xmlns="http://www.w3.org/2000/svg" xmlns:xlink="http://www.w3.org/1999/xlink">
	<desc>
			Created with Pixso.
	</desc>
	<defs/>
	<rect id="Abstract Line" rx="0.000000" width="38.000000" height="42.000000" transform="translate(0.500000 0.500000)" fill="#FFFFFF" fill-opacity="0"/>
	<path id="Vector" d="M13.04 40.12C9.32 39.07 5.42 38.54 1.64 38.05C0.82 37.95 0.07 38.52 0.01 39.32C-0.11 40.12 0.48 40.86 1.23 40.96C4.9 41.43 8.68 41.93 12.23 42.94C12.99 43.16 13.8 42.71 14.03 41.93C14.27 41.15 13.8 40.34 13.04 40.12Z" fill="#262626" fill-opacity="1.000000" fill-rule="evenodd"/>
	<path id="Vector" d="M24.33 25.21C18.34 19.06 11.59 13.69 5.71 7.37C5.19 6.78 4.26 6.75 3.68 7.3C3.09 7.86 3.04 8.78 3.62 9.37C9.49 15.71 16.24 21.09 22.24 27.26C22.82 27.84 23.75 27.85 24.33 27.28C24.86 26.72 24.91 25.79 24.33 25.21Z" fill="#262626" fill-opacity="1.000000" fill-rule="evenodd"/>
	<path id="Vector" d="M35.56 1.54C35.74 5.06 35.91 8.58 36.09 12.11C36.09 12.91 36.78 13.54 37.6 13.5C38.41 13.46 39 12.77 39 11.96C38.82 8.43 38.65 4.91 38.47 1.38C38.41 0.57 37.72 -0.05 36.9 0C36.14 0.04 35.5 0.73 35.56 1.54Z" fill="#262626" fill-opacity="1.000000" fill-rule="evenodd"/>
</svg>
