<svg width="34.000000" height="34.000000" viewBox="0 0 34 34" fill="none" xmlns="http://www.w3.org/2000/svg" xmlns:xlink="http://www.w3.org/1999/xlink">
	<desc>
			Created with Pixso.
	</desc>
	<defs>
		<clipPath id="clip1_110">
			<rect id="Icon" rx="0.000000" width="33.000000" height="33.000000" transform="translate(0.500000 0.500000)" fill="white" fill-opacity="0"/>
		</clipPath>
	</defs>
	<g clip-path="url(#clip1_110)">
		<path id="Vector (Stroke)" d="M8.87 25.12C9.37 25.62 10.17 25.62 10.67 25.12L22.95 12.85L22.95 22.52C22.95 23.22 23.52 23.8 24.22 23.8C24.92 23.8 25.5 23.22 25.5 22.52L25.5 9.77C25.5 9.07 24.92 8.5 24.22 8.5L11.47 8.5C10.77 8.5 10.2 9.07 10.2 9.77C10.2 10.47 10.77 11.05 11.47 11.05L21.14 11.05L8.87 23.32C8.37 23.82 8.37 24.62 8.87 25.12Z" fill="#FF9500" fill-opacity="1.000000" fill-rule="evenodd"/>
	</g>
</svg>
