<svg width="62.000000" height="62.000000" viewBox="0 0 62 62" fill="none" xmlns="http://www.w3.org/2000/svg" xmlns:xlink="http://www.w3.org/1999/xlink">
	<desc>
			Created with Pixso.
	</desc>
	<defs>
		<clipPath id="clip1_23">
			<rect id="Icon" rx="0.000000" width="33.000000" height="33.000000" transform="translate(14.500000 14.500000)" fill="white" fill-opacity="0"/>
		</clipPath>
	</defs>
	<rect id="Icon Container" rx="5.500000" width="61.000000" height="61.000000" transform="translate(0.500000 0.500000)" fill="#FFF4E6" fill-opacity="1.000000"/>
	<g clip-path="url(#clip1_23)">
		<path id="Vector 449 (Stroke)" d="M34.7 16.25C35.13 16.49 35.34 16.99 35.21 17.46L32.39 27.81L42.68 27.81C43.11 27.81 43.49 28.06 43.66 28.45C43.83 28.83 43.75 29.29 43.46 29.6L28.58 45.53C28.25 45.89 27.72 45.97 27.29 45.74C26.86 45.5 26.65 45 26.78 44.53L29.6 34.18L19.31 34.18C18.88 34.18 18.5 33.93 18.33 33.54C18.16 33.16 18.24 32.7 18.53 32.39L33.41 16.46C33.74 16.1 34.27 16.02 34.7 16.25Z" fill="#262626" fill-opacity="1.000000" fill-rule="evenodd"/>
	</g>
</svg>
