<svg width="94.208313" height="34.000000" viewBox="0 0 94.2083 34" fill="none" xmlns="http://www.w3.org/2000/svg" xmlns:xlink="http://www.w3.org/1999/xlink">
	<desc>
			Created with Pixso.
	</desc>
	<defs>
		<clipPath id="clip1_78">
			<rect id="Logo" rx="0.000000" width="93.108337" height="32.900002" transform="translate(0.550000 0.550000)" fill="white" fill-opacity="0"/>
		</clipPath>
	</defs>
	<rect id="Logo" rx="0.000000" width="93.108337" height="32.900002" transform="translate(0.550000 0.550000)" fill="#FFFFFF" fill-opacity="0"/>
	<g clip-path="url(#clip1_78)">
		<path id="Vector" d="M10.36 4.25L0 4.25L0 29.04L10.36 4.25Z" fill="#4C4C4D" fill-opacity="1.000000" fill-rule="nonzero"/>
		<path id="Vector" d="M17.66 4.25L28.01 4.25L28.01 29.04L17.66 4.25Z" fill="#4C4C4D" fill-opacity="1.000000" fill-rule="nonzero"/>
		<path id="Vector" d="M14.01 13.38L20.61 29.04L16.28 29.04L14.31 24.05L9.48 24.05L14.01 13.38Z" fill="#4C4C4D" fill-opacity="1.000000" fill-rule="nonzero"/>
		<path id="Vector" d="M44.92 20.01L46.14 23.52C46.18 23.6 46.24 23.64 46.35 23.64L48.7 23.64C48.83 23.64 48.85 23.58 48.83 23.45L43.98 9.97C43.96 9.86 43.93 9.84 43.83 9.84L40.91 9.84C40.83 9.84 40.78 9.9 40.78 9.99C40.74 10.7 40.68 10.91 40.59 11.12L36.26 23.43C36.24 23.58 36.29 23.64 36.41 23.64L38.51 23.64C38.64 23.64 38.7 23.6 38.75 23.47L39.9 20.01L44.92 20.01ZM40.57 17.72C41.21 15.8 42.04 13.34 42.38 11.94L42.4 11.94C42.82 13.41 43.81 16.33 44.25 17.72L40.57 17.72Z" fill="#4C4C4D" fill-opacity="1.000000" fill-rule="nonzero"/>
		<path id="Vector" d="M55.07 23.85C56.34 23.85 57.68 23.62 59.04 23.03C59.15 22.99 59.17 22.95 59.17 22.85C59.13 22.47 59.09 21.92 59.09 21.5L59.09 8.81C59.09 8.72 59.09 8.68 58.98 8.68L56.69 8.68C56.61 8.68 56.57 8.72 56.57 8.83L56.57 13.13C56.21 13.09 55.96 13.07 55.66 13.07C51.97 13.07 49.7 15.51 49.7 18.56C49.7 22.09 52.03 23.85 55.07 23.85ZM56.57 21.5C56.19 21.62 55.77 21.67 55.34 21.67C53.67 21.67 52.3 20.73 52.3 18.43C52.3 16.4 53.71 15.19 55.58 15.19C55.96 15.19 56.29 15.23 56.57 15.34L56.57 21.5Z" fill="#4C4C4D" fill-opacity="1.000000" fill-rule="nonzero"/>
		<path id="Vector" d="M66.47 13.07C63.32 13.07 61.37 15.49 61.37 18.48C61.37 21.14 62.92 23.85 66.43 23.85C69.39 23.85 71.47 21.67 71.47 18.41C71.47 15.53 69.71 13.07 66.47 13.07ZM66.35 15.19C68.13 15.19 68.89 16.73 68.89 18.48C68.89 20.64 67.77 21.71 66.47 21.71C64.87 21.71 63.93 20.37 63.93 18.43C63.93 16.44 64.94 15.19 66.35 15.19Z" fill="#4C4C4D" fill-opacity="1.000000" fill-rule="nonzero"/>
		<path id="Vector" d="M73.84 8.68C73.75 8.68 73.69 8.72 73.69 8.83L73.69 23.2C73.69 23.26 73.75 23.37 73.84 23.39C74.85 23.7 75.9 23.85 76.99 23.85C80.1 23.85 83.13 21.92 83.13 18.03C83.13 15.21 81.19 13.07 78.17 13.07C77.47 13.07 76.83 13.18 76.26 13.37L76.23 8.85C76.23 8.7 76.19 8.68 76.04 8.68L73.84 8.68ZM80.54 18.29C80.54 20.62 78.95 21.71 77.22 21.71C76.87 21.71 76.55 21.69 76.26 21.6L76.26 15.47C76.59 15.34 76.99 15.23 77.72 15.23C79.38 15.23 80.54 16.29 80.54 18.29Z" fill="#4C4C4D" fill-opacity="1.000000" fill-rule="nonzero"/>
		<path id="Vector" d="M91.67 19.04C92.7 19.04 93.54 19.02 93.83 18.96C93.94 18.94 93.98 18.9 94 18.81C94.06 18.58 94.09 18.1 94.09 17.51C94.09 15.51 92.89 13.07 89.78 13.07C86.61 13.07 84.84 15.66 84.84 18.58C84.84 21.16 86.21 23.85 90.03 23.85C91.46 23.85 92.39 23.62 93.18 23.24C93.26 23.2 93.3 23.14 93.3 23.02L93.3 21.27C93.3 21.16 93.24 21.14 93.18 21.18C92.39 21.52 91.52 21.69 90.58 21.69C88.44 21.69 87.46 20.51 87.4 19.04L91.67 19.04ZM87.4 17.23C87.57 16.21 88.22 15.09 89.67 15.09C91.27 15.09 91.69 16.44 91.69 17.05C91.69 17.07 91.69 17.15 91.69 17.21C91.6 17.23 91.33 17.23 90.54 17.23L87.4 17.23Z" fill="#4C4C4D" fill-opacity="1.000000" fill-rule="nonzero"/>
	</g>
</svg>
