<svg width="77.916626" height="34.000000" viewBox="0 0 77.9166 34" fill="none" xmlns="http://www.w3.org/2000/svg" xmlns:xlink="http://www.w3.org/1999/xlink">
	<desc>
			Created with Pixso.
	</desc>
	<defs>
		<clipPath id="clip1_73">
			<rect id="Logo" rx="0.000000" width="77.036644" height="33.119999" transform="translate(0.440000 0.440000)" fill="white" fill-opacity="0"/>
		</clipPath>
	</defs>
	<rect id="Logo" rx="0.000000" width="77.036644" height="33.119999" transform="translate(0.440000 0.440000)" fill="#FFFFFF" fill-opacity="0"/>
	<g clip-path="url(#clip1_73)">
		<path id="Vector" d="M44.75 24.45C46.22 24.28 49.42 23.9 49.99 24.63C50.57 25.37 49.35 28.41 48.8 29.77L48.8 29.77C48.64 30.18 48.99 30.35 49.36 30.04C51.78 28.01 52.41 23.78 51.91 23.16C51.42 22.56 47.19 22.03 44.62 23.85C44.22 24.12 44.29 24.51 44.73 24.45L44.75 24.45ZM31.45 31.87C37.07 31.87 43.61 30.1 48.11 26.77C48.86 26.22 48.22 25.4 47.46 25.72C42.41 27.86 36.91 28.9 31.92 28.9C24.52 28.9 17.35 26.87 11.55 23.5C11.04 23.2 10.67 23.72 11.09 24.1C16.46 28.95 23.56 31.87 31.45 31.87Z" fill="#4C4C4D" fill-opacity="1.000000" fill-rule="evenodd"/>
		<path id="Vector" d="M8.92 22.07C9.1 22.16 9.33 22.15 9.49 22.01L9.5 22.02C9.98 21.59 10.85 20.83 11.34 20.42C11.53 20.26 11.5 20 11.34 19.79C10.9 19.18 10.44 18.68 10.44 17.56L10.44 13.82C10.44 13.69 10.44 13.56 10.44 13.44C10.45 12 10.45 10.69 9.38 9.69C8.46 8.81 6.93 8.5 5.76 8.5C3.48 8.5 0.93 9.35 0.4 12.17C0.34 12.47 0.56 12.63 0.75 12.67L3.08 12.92C3.3 12.91 3.46 12.7 3.5 12.48C3.7 11.51 4.52 11.04 5.43 11.04C5.92 11.04 6.48 11.22 6.78 11.67C7.08 12.11 7.07 12.7 7.07 13.23C7.07 13.29 7.07 13.35 7.07 13.4L7.07 13.71C5.68 13.87 3.86 13.98 2.55 14.55C1.05 15.2 -0.01 16.52 -0.01 18.47C-0.01 20.97 1.57 22.21 3.59 22.21C5.3 22.21 6.23 21.81 7.54 20.47C7.98 21.1 8.12 21.41 8.92 22.07ZM40.96 22.01C40.8 22.15 40.57 22.16 40.39 22.07C39.6 21.41 39.45 21.1 39.02 20.47C37.7 21.81 36.76 22.21 35.06 22.21C33.04 22.21 31.47 20.97 31.47 18.47C31.47 16.52 32.52 15.2 34.03 14.55C35.33 13.98 37.15 13.87 38.54 13.71L38.54 13.4C38.54 13.35 38.54 13.29 38.54 13.23C38.54 12.7 38.55 12.11 38.25 11.67C37.96 11.22 37.4 11.04 36.9 11.04C35.98 11.04 35.17 11.51 34.97 12.48C34.93 12.7 34.77 12.91 34.55 12.92L32.23 12.67C32.03 12.63 31.81 12.47 31.87 12.17C32.4 9.35 34.95 8.5 37.24 8.5C38.4 8.5 39.93 8.81 40.85 9.69C41.93 10.69 41.92 12 41.91 13.44C41.91 13.56 41.91 13.69 41.91 13.82L41.91 17.56C41.91 18.68 42.38 19.18 42.81 19.79C42.97 20 43 20.26 42.8 20.42C42.31 20.83 41.44 21.59 40.96 22.02L40.96 22.01ZM13.65 22.04L16.05 22.04C16.3 22.04 16.51 21.85 16.51 21.6L16.51 15.07C16.51 15.02 16.51 14.97 16.51 14.91C16.51 13.51 16.5 11.67 18.17 11.67C19.7 11.67 19.67 13.3 19.65 14.63C19.65 14.78 19.65 14.93 19.65 15.07L19.65 21.6C19.65 21.84 19.84 22.03 20.08 22.04L22.48 22.04C22.73 22.04 22.94 21.85 22.94 21.6L22.94 15.07C22.94 15.01 22.94 14.96 22.94 14.9C22.94 14.21 22.94 13.28 23.16 12.71C23.41 12.09 24.02 11.7 24.6 11.7C25.29 11.7 25.83 11.93 26.01 12.76C26.1 13.16 26.09 14.07 26.08 14.69C26.08 14.84 26.08 14.97 26.08 15.07L26.08 21.6C26.08 21.84 26.27 22.03 26.51 22.04L28.91 22.04C29.16 22.04 29.37 21.85 29.37 21.6L29.37 13.82C29.37 13.63 29.38 13.44 29.38 13.24C29.4 12.08 29.42 10.85 28.77 9.96C28.1 9.03 27 8.61 25.99 8.61C24.57 8.61 23.25 9.34 22.67 10.9C22 9.34 21.06 8.61 19.56 8.61C18.08 8.61 16.98 9.34 16.4 10.9L16.35 10.9L16.35 9.29C16.34 9.06 16.15 8.88 15.92 8.87L13.68 8.87C13.42 8.87 13.22 9.07 13.22 9.32L13.22 21.64C13.23 21.86 13.42 22.03 13.65 22.04ZM60.42 8.61C63.98 8.61 65.91 11.67 65.91 15.56C65.91 19.32 63.78 22.3 60.42 22.3C56.92 22.3 55.01 19.24 55.01 15.43C55.01 11.59 56.94 8.61 60.42 8.61ZM68.13 22.04L70.52 22.04C70.78 22.04 70.99 21.85 70.99 21.6L70.99 14.96C70.99 14.13 71.04 13.38 71.38 12.63C71.64 12.04 72.18 11.65 72.76 11.65C74.29 11.65 74.28 13.33 74.27 14.64C74.27 14.75 74.27 14.86 74.27 14.96L74.27 21.66C74.29 21.87 74.47 22.03 74.69 22.04L77.1 22.04C77.33 22.04 77.53 21.87 77.56 21.66L77.56 13.9C77.56 12.71 77.56 11.05 76.93 10.06C76.26 9 75.21 8.61 74.13 8.61C72.47 8.61 71.53 9.42 70.86 11.1L70.81 11.1L70.81 9.22C70.77 9.03 70.6 8.88 70.39 8.87L68.16 8.87C67.92 8.87 67.72 9.05 67.7 9.27L67.7 21.6C67.7 21.84 67.89 22.03 68.13 22.04ZM44.83 11.05L44.83 9.29C44.83 9.02 45.03 8.84 45.28 8.84L53.17 8.84C53.42 8.84 53.62 9.02 53.62 9.29L53.62 10.79C53.62 11.05 53.41 11.38 53.03 11.9L48.94 17.74C50.46 17.7 52.06 17.93 53.44 18.71C53.75 18.88 53.83 19.14 53.86 19.39L53.86 21.27C53.86 21.53 53.58 21.83 53.28 21.67C50.85 20.4 47.63 20.26 44.94 21.69C44.67 21.84 44.38 21.54 44.38 21.28L44.38 19.5C44.38 19.21 44.38 18.72 44.67 18.28L49.41 11.49L45.29 11.49C45.03 11.49 44.83 11.31 44.83 11.05ZM60.44 11.13C58.67 11.13 58.56 13.54 58.56 15.04L58.56 15.1C58.55 16.62 58.55 19.76 60.42 19.76C62.28 19.76 62.36 17.17 62.36 15.59C62.36 14.55 62.32 13.31 62.01 12.32C61.74 11.46 61.2 11.13 60.44 11.13ZM7.07 16.29C7.07 16.25 7.07 16.2 7.07 16.16L7.07 15.64C5.33 15.64 3.5 16.01 3.5 18.06C3.5 19.09 4.04 19.8 4.96 19.8C5.63 19.8 6.24 19.38 6.62 18.71C7.07 17.91 7.07 17.17 7.07 16.29ZM38.54 16.16C38.54 16.2 38.54 16.25 38.54 16.29C38.54 17.17 38.54 17.91 38.09 18.71C37.71 19.38 37.1 19.8 36.43 19.8C35.51 19.8 34.97 19.09 34.97 18.06C34.97 16.01 36.8 15.64 38.54 15.64L38.54 16.16Z" fill="#4C4C4D" fill-opacity="1.000000" fill-rule="evenodd"/>
	</g>
</svg>
