<svg width="78.625000" height="34.000000" viewBox="0 0 78.625 34" fill="none" xmlns="http://www.w3.org/2000/svg" xmlns:xlink="http://www.w3.org/1999/xlink">
	<desc>
			Created with Pixso.
	</desc>
	<defs>
		<clipPath id="clip1_93">
			<rect id="Logo" rx="0.000000" width="77.525002" height="32.900002" transform="translate(0.550000 0.550000)" fill="white" fill-opacity="0"/>
		</clipPath>
	</defs>
	<rect id="Logo" rx="0.000000" width="77.525002" height="32.900002" transform="translate(0.550000 0.550000)" fill="#FFFFFF" fill-opacity="0"/>
	<g clip-path="url(#clip1_93)">
		<path id="Vector" d="M10.81 26.96C9.62 27.16 8.42 27.23 7.17 27.39L3.38 16.27L3.38 27.87C2.19 27.99 1.12 28.16 -0.01 28.33L-0.01 7.08L3.15 7.08L7.47 19.13L7.47 7.08L10.81 7.08L10.81 26.96ZM17.34 14.86C18.63 14.86 20.6 14.8 21.78 14.8L21.78 18.12C20.31 18.12 18.59 18.12 17.34 18.18L17.34 23.12C19.29 22.99 21.24 22.83 23.22 22.77L23.22 25.96L14.02 26.69L14.02 7.08L23.22 7.08L23.22 10.4L17.34 10.4L17.34 14.86ZM35.56 10.4L32.12 10.4L32.12 25.67C31 25.67 29.88 25.67 28.8 25.71L28.8 10.4L25.35 10.4L25.35 7.08L35.56 7.08L35.56 10.4ZM40.96 14.63L45.5 14.63L45.5 17.95L40.96 17.95L40.96 25.48L37.7 25.48L37.7 7.08L46.98 7.08L46.98 10.4L40.96 10.4L40.96 14.63ZM52.37 22.58C54.26 22.62 56.17 22.77 58.02 22.87L58.02 26.15C55.05 25.96 52.08 25.77 49.05 25.71L49.05 7.08L52.37 7.08L52.37 22.58ZM60.82 26.38C61.88 26.44 63 26.5 64.08 26.62L64.08 7.08L60.82 7.08L60.82 26.38ZM78.62 7.08L74.41 17.18L78.62 28.33C77.38 28.16 76.13 27.93 74.89 27.72L72.5 21.58L70.07 27.23C68.87 27.02 67.71 26.96 66.51 26.79L70.78 17.06L66.92 7.08L70.49 7.08L72.67 12.66L74.99 7.08L78.62 7.08L78.62 7.08Z" fill="#4C4C4D" fill-opacity="1.000000" fill-rule="nonzero"/>
	</g>
</svg>
