<svg width="91.375000" height="34.000000" viewBox="0 0 91.375 34" fill="none" xmlns="http://www.w3.org/2000/svg" xmlns:xlink="http://www.w3.org/1999/xlink">
	<desc>
			Created with Pixso.
	</desc>
	<defs>
		<clipPath id="clip1_89">
			<rect id="Logo" rx="0.000000" width="90.458336" height="33.083332" transform="translate(0.458333 0.458333)" fill="white" fill-opacity="0"/>
		</clipPath>
	</defs>
	<rect id="Logo" rx="0.000000" width="90.458336" height="33.083332" transform="translate(0.458333 0.458333)" fill="#FFFFFF" fill-opacity="0"/>
	<g clip-path="url(#clip1_89)">
		<path id="Vector" d="M15.04 4.3L1.47 5.29C0.39 5.39 0 6.09 0 6.95L0 21.75C0 22.41 0.24 22.98 0.81 23.74L4.01 27.88C4.53 28.54 5 28.69 6.01 28.64L21.75 27.68C23.09 27.58 23.46 26.97 23.46 25.93L23.46 9.28C23.46 8.71 23.22 8.57 22.5 8.05L18.18 5.02C17.14 4.25 16.7 4.16 15.04 4.3ZM6.34 9C5.06 9.09 4.77 9.11 4.04 8.52L2.19 7.06C1.99 6.88 2.09 6.64 2.56 6.59L15.59 5.63C16.68 5.53 17.27 5.92 17.69 6.25L19.93 7.85C20.03 7.89 20.27 8.18 19.98 8.18L6.51 8.99C6.45 8.99 6.39 9 6.34 9ZM66.85 9.69C66.85 10.55 66.15 11.25 65.28 11.25C64.41 11.25 63.71 10.55 63.71 9.69C63.71 8.81 64.41 8.11 65.28 8.11C66.15 8.11 66.85 8.81 66.85 9.69ZM31.82 14.32L31.82 24.63L29.2 24.63L29.2 9.49L31.56 9.49L39.07 19.77L39.25 19.77L39.25 9.49L41.87 9.49L41.87 24.63L39.51 24.63L32.01 14.32L31.82 14.32ZM4.85 25.79L4.85 11.65C4.85 11.03 5.05 10.74 5.62 10.69L21.09 9.78C21.61 9.73 21.85 10.07 21.85 10.69L21.85 24.73C21.85 25.35 21.75 25.87 20.89 25.91L6.09 26.77C5.23 26.82 4.85 26.55 4.85 25.79ZM57.28 13.23L57.28 10.34L59.9 10.34L59.9 13.23L62.39 13.23L62.39 15.3L59.9 15.3L59.9 20.94C59.9 22.08 60.4 22.58 61.5 22.58C61.87 22.58 62.08 22.55 62.39 22.52L62.39 24.55C62 24.63 61.5 24.68 61 24.68C58.33 24.68 57.28 23.8 57.28 21.56L57.28 15.3L55.44 15.3L55.44 13.23L57.28 13.23ZM19.04 13.32C19.46 13.27 19.56 12.83 19.46 12.41L16.2 12.59C15.72 12.64 15.33 13.03 15.43 13.54L16.67 13.69L16.67 20.22L11.81 12.83L8.28 13.07C7.62 13.12 7.37 13.74 7.47 14.16L8.66 14.26L8.66 23.6L7.79 23.84C7.47 23.94 7.37 24.41 7.47 24.6L10.75 24.41C11.94 24.41 11.94 23.55 11.94 23.55L10.46 23.22L10.46 16.15L15.12 23.47C15.69 24.18 15.89 24.42 16.65 24.42C17.14 24.42 17.71 24.23 18.32 23.9L18.32 13.46L19.04 13.32ZM54.89 18.89C54.89 22.63 52.76 24.86 49.3 24.86C45.84 24.86 43.74 22.63 43.71 18.89C43.71 15.17 45.86 12.91 49.3 12.91C52.76 12.91 54.89 15.17 54.89 18.89ZM79.37 18.89C79.37 22.63 77.25 24.86 73.78 24.86C70.29 24.86 68.19 22.63 68.19 18.89C68.19 15.17 70.34 12.91 73.78 12.91C77.25 12.91 79.37 15.17 79.37 18.89ZM83.54 24.63L80.92 24.63C80.92 24.63 80.92 13.15 80.89 13.15L83.44 13.15L83.44 14.99L83.62 14.99C84.17 13.69 85.33 12.91 87.06 12.91C89.63 12.91 91.05 14.45 91.05 17.2L91.05 24.63L88.42 24.63L88.42 17.82C88.42 16.08 87.69 15.2 86.09 15.2C84.54 15.2 83.54 16.26 83.54 17.95L83.54 24.63ZM66.59 24.63L63.97 24.63L63.97 13.15L66.59 13.15L66.59 24.63ZM46.41 18.89C46.41 21.3 47.46 22.68 49.3 22.68C51.14 22.68 52.19 21.3 52.19 18.89C52.19 16.5 51.14 15.1 49.3 15.1C47.46 15.1 46.41 16.5 46.41 18.89ZM70.9 18.89C70.9 21.3 71.95 22.68 73.78 22.68C75.59 22.68 76.64 21.3 76.67 18.89C76.67 16.5 75.59 15.1 73.78 15.1C71.95 15.1 70.9 16.5 70.9 18.89Z" fill="#4C4C4D" fill-opacity="1.000000" fill-rule="evenodd"/>
	</g>
</svg>
