<svg width="99.166748" height="34.000000" viewBox="0 0 99.1667 34" fill="none" xmlns="http://www.w3.org/2000/svg" xmlns:xlink="http://www.w3.org/1999/xlink">
	<desc>
			Created with Pixso.
	</desc>
	<defs>
		<clipPath id="clip1_65">
			<rect id="Logo" rx="0.000000" width="98.286690" height="33.119999" transform="translate(0.440000 0.440000)" fill="white" fill-opacity="0"/>
		</clipPath>
	</defs>
	<rect id="Logo" rx="0.000000" width="98.286690" height="33.119999" transform="translate(0.440000 0.440000)" fill="#FFFFFF" fill-opacity="0"/>
	<g clip-path="url(#clip1_65)">
		<path id="Vector" d="M14.92 2.18C6.71 2.18 0.05 8.84 0.05 17.05C0.05 25.27 6.71 31.93 14.92 31.93C23.14 31.93 29.8 25.27 29.8 17.05C29.8 8.84 23.14 2.18 14.92 2.18L14.92 2.18ZM21.75 23.63C21.48 24.07 20.91 24.21 20.47 23.94C16.98 21.8 12.58 21.32 7.4 22.5C6.9 22.62 6.41 22.3 6.29 21.81C6.18 21.31 6.49 20.81 6.99 20.7C12.66 19.4 17.52 19.96 21.44 22.35C21.88 22.62 22.01 23.19 21.75 23.63ZM23.57 19.58C23.23 20.13 22.52 20.3 21.97 19.96C17.97 17.5 11.88 16.79 7.15 18.23C6.53 18.41 5.89 18.07 5.7 17.46C5.52 16.84 5.86 16.2 6.47 16.01C11.88 14.37 18.59 15.16 23.18 17.99C23.73 18.32 23.9 19.04 23.57 19.58L23.57 19.58ZM23.72 15.36C18.93 12.51 11.02 12.25 6.44 13.64C5.71 13.86 4.93 13.45 4.71 12.71C4.48 11.98 4.9 11.2 5.63 10.98C10.89 9.38 19.62 9.69 25.14 12.97C25.81 13.36 26.02 14.22 25.63 14.88C25.24 15.54 24.38 15.75 23.72 15.36L23.72 15.36ZM40.52 15.91C37.95 15.3 37.49 14.87 37.49 13.96C37.49 13.11 38.3 12.53 39.49 12.53C40.65 12.53 41.8 12.97 43 13.87C43.04 13.9 43.08 13.91 43.13 13.9C43.17 13.89 43.21 13.87 43.24 13.83L44.49 12.06C44.55 11.99 44.53 11.89 44.46 11.83C43.03 10.68 41.42 10.13 39.53 10.13C36.76 10.13 34.82 11.79 34.82 14.17C34.82 16.72 36.49 17.63 39.38 18.33C41.84 18.89 42.25 19.37 42.25 20.21C42.25 21.15 41.41 21.74 40.06 21.74C38.56 21.74 37.34 21.23 35.97 20.05C35.94 20.02 35.89 20.01 35.85 20.01C35.8 20.01 35.76 20.03 35.73 20.07L34.33 21.74C34.27 21.81 34.28 21.91 34.34 21.97C35.93 23.4 37.89 24.14 40.01 24.14C42.99 24.14 44.92 22.51 44.92 19.98C44.93 17.85 43.65 16.67 40.52 15.91L40.52 15.91ZM51.69 13.37C50.39 13.37 49.33 13.88 48.45 14.93L48.45 13.75C48.45 13.66 48.38 13.58 48.28 13.58L45.98 13.58C45.89 13.58 45.82 13.66 45.82 13.75L45.82 26.83C45.82 26.92 45.89 27 45.98 27L48.28 27C48.38 27 48.45 26.92 48.45 26.83L48.45 22.7C49.33 23.68 50.39 24.16 51.69 24.16C54.09 24.16 56.53 22.31 56.53 18.77C56.53 15.23 54.1 13.37 51.69 13.37L51.69 13.37ZM53.85 18.77C53.85 20.57 52.74 21.83 51.15 21.83C49.58 21.83 48.39 20.52 48.39 18.77C48.39 17.02 49.58 15.71 51.15 15.71C52.72 15.71 53.85 17 53.85 18.77L53.85 18.77ZM62.77 13.37C59.67 13.37 57.25 15.76 57.25 18.81C57.25 21.82 59.66 24.18 62.74 24.18C65.85 24.18 68.28 21.81 68.28 18.77C68.28 15.75 65.86 13.37 62.77 13.37L62.77 13.37ZM62.77 21.85C61.12 21.85 59.88 20.52 59.88 18.77C59.88 17.01 61.08 15.73 62.74 15.73C64.39 15.73 65.65 17.05 65.65 18.81C65.65 20.57 64.44 21.85 62.77 21.85ZM74.9 13.58L72.37 13.58L72.37 11C72.37 10.9 72.29 10.83 72.2 10.83L69.9 10.83C69.81 10.83 69.73 10.9 69.73 11L69.73 13.58L68.63 13.58C68.54 13.58 68.46 13.66 68.46 13.75L68.46 15.73C68.46 15.82 68.54 15.9 68.63 15.9L69.73 15.9L69.73 21.01C69.73 23.08 70.76 24.13 72.79 24.13C73.62 24.13 74.3 23.96 74.94 23.59C75 23.56 75.03 23.51 75.03 23.45L75.03 21.56C75.03 21.51 75 21.45 74.95 21.42C74.9 21.39 74.84 21.39 74.79 21.41C74.34 21.64 73.92 21.74 73.44 21.74C72.7 21.74 72.37 21.4 72.37 20.65L72.37 15.9L74.9 15.9C74.99 15.9 75.07 15.82 75.07 15.73L75.07 13.75C75.07 13.66 75 13.59 74.9 13.59L74.9 13.58ZM83.72 13.6L83.72 13.28C83.72 12.34 84.08 11.93 84.88 11.93C85.36 11.93 85.74 12.02 86.18 12.16C86.23 12.18 86.28 12.17 86.33 12.14C86.37 12.11 86.4 12.06 86.4 12L86.4 10.07C86.4 9.99 86.35 9.93 86.28 9.9C85.82 9.77 85.24 9.63 84.37 9.63C82.24 9.63 81.12 10.83 81.12 13.09L81.12 13.58L80.01 13.58C79.92 13.58 79.84 13.65 79.84 13.74L79.84 15.73C79.84 15.82 79.92 15.9 80.01 15.9L81.12 15.9L81.12 23.79C81.12 23.88 81.19 23.96 81.29 23.96L83.59 23.96C83.68 23.96 83.75 23.88 83.75 23.79L83.75 15.9L85.9 15.9L89.19 23.79C88.82 24.61 88.45 24.78 87.95 24.78C87.55 24.78 87.12 24.66 86.68 24.42C86.64 24.4 86.59 24.39 86.55 24.41C86.5 24.42 86.47 24.45 86.45 24.5L85.67 26.21C85.63 26.29 85.66 26.38 85.74 26.43C86.56 26.87 87.29 27.05 88.2 27.05C89.9 27.05 90.83 26.26 91.66 24.13L95.65 13.83C95.67 13.77 95.66 13.71 95.63 13.67C95.6 13.62 95.55 13.6 95.5 13.6L93.1 13.6C93.03 13.6 92.96 13.64 92.94 13.71L90.49 20.71L87.8 13.7C87.78 13.64 87.72 13.6 87.65 13.6L83.72 13.6L83.72 13.6ZM78.61 13.58L76.3 13.58C76.21 13.58 76.14 13.66 76.14 13.75L76.14 23.79C76.14 23.88 76.21 23.96 76.3 23.96L78.61 23.96C78.7 23.96 78.77 23.88 78.77 23.79L78.77 13.75C78.77 13.66 78.7 13.59 78.61 13.59L78.61 13.58ZM77.47 9.02C76.56 9.02 75.82 9.75 75.82 10.66C75.82 11.58 76.56 12.31 77.47 12.31C78.38 12.31 79.12 11.58 79.12 10.66C79.12 9.75 78.38 9.02 77.47 9.02ZM97.62 16.81C96.71 16.81 96 16.08 96 15.19C96 14.3 96.71 13.57 97.62 13.57C98.53 13.57 99.24 14.3 99.24 15.18C99.24 16.07 98.52 16.81 97.62 16.81ZM97.62 13.73C96.79 13.73 96.17 14.39 96.17 15.19C96.17 16 96.79 16.65 97.62 16.65C98.44 16.65 99.07 15.99 99.07 15.18C99.07 14.38 98.45 13.73 97.62 13.73ZM97.98 15.35L98.44 15.99L98.05 15.99L97.64 15.4L97.29 15.4L97.29 15.99L96.96 15.99L96.96 14.29L97.72 14.29C98.12 14.29 98.38 14.49 98.38 14.83C98.38 15.11 98.22 15.28 97.98 15.35L97.98 15.35ZM97.71 14.58L97.29 14.58L97.29 15.12L97.71 15.12C97.92 15.12 98.04 15.02 98.04 14.85C98.04 14.68 97.92 14.58 97.71 14.58Z" fill="#4C4C4D" fill-opacity="1.000000" fill-rule="nonzero"/>
	</g>
</svg>
