<svg width="68.000000" height="34.000000" viewBox="0 0 68 34" fill="none" xmlns="http://www.w3.org/2000/svg" xmlns:xlink="http://www.w3.org/1999/xlink">
	<desc>
			Created with Pixso.
	</desc>
	<defs>
		<clipPath id="clip1_61">
			<rect id="Logo" rx="0.000000" width="67.120003" height="33.119999" transform="translate(0.440000 0.440000)" fill="white" fill-opacity="0"/>
		</clipPath>
	</defs>
	<rect id="Logo" rx="0.000000" width="67.120003" height="33.119999" transform="translate(0.440000 0.440000)" fill="#FFFFFF" fill-opacity="0"/>
	<g clip-path="url(#clip1_61)">
		<path id="Vector" d="M42.91 4.36L45.42 4.36C45.46 4.59 45.48 4.83 45.48 5.06L45.48 5.07C45.48 5.32 45.46 5.56 45.42 5.79L42.92 5.79L44.69 7.56C44.56 7.76 44.4 7.94 44.23 8.11C44.06 8.28 43.87 8.43 43.68 8.57L41.91 6.8L41.91 9.3C41.68 9.34 41.44 9.36 41.19 9.36L41.18 9.36C40.94 9.36 40.7 9.34 40.47 9.3L40.47 6.8L38.7 8.57C38.3 8.29 37.96 7.95 37.68 7.56L39.46 5.79L36.95 5.79C36.92 5.56 36.89 5.32 36.89 5.07C36.89 4.83 36.95 4.36 36.95 4.36L39.46 4.36L37.68 2.58C37.82 2.38 37.97 2.2 38.14 2.03C38.31 1.87 38.5 1.71 38.69 1.57L40.46 3.34L40.46 0.84C40.69 0.8 40.93 0.78 41.18 0.78L41.18 0.78C41.43 0.78 41.67 0.8 41.9 0.84L41.9 3.34L43.67 1.57C43.87 1.7 44.05 1.86 44.22 2.03C44.39 2.2 44.54 2.39 44.69 2.58L42.91 4.36ZM42.09 5.99C42.2 5.71 42.26 5.4 42.26 5.08C42.26 4.75 42.2 4.45 42.09 4.16C41.81 4.06 41.5 4 41.18 4C40.86 4 40.56 4.06 40.28 4.16C40.17 4.45 40.11 4.75 40.11 5.07L40.11 5.08C40.11 5.4 40.17 5.71 40.28 5.99C40.56 6.09 40.86 6.15 41.18 6.15C41.5 6.15 41.81 6.09 42.09 5.99ZM48.48 19.43C48.52 20.87 48.89 21.94 49.61 22.61C50.33 23.28 51.38 23.61 52.78 23.61C54 23.61 55.17 23.4 56.27 22.97C56.41 23.23 56.52 23.54 56.6 23.91C56.69 24.28 56.74 24.65 56.76 25.01C56.2 25.25 55.57 25.44 54.88 25.56C54.21 25.68 53.45 25.74 52.62 25.74C51.41 25.74 50.38 25.57 49.51 25.23C48.65 24.9 47.94 24.42 47.38 23.81C46.82 23.2 46.41 22.47 46.15 21.63C45.89 20.8 45.77 19.88 45.77 18.88C45.77 17.89 45.89 16.98 46.14 16.12C46.38 15.26 46.77 14.53 47.29 13.89C47.8 13.27 48.46 12.76 49.24 12.39C50.02 12.02 50.95 11.84 52.02 11.84C52.93 11.84 53.73 11.99 54.42 12.31C55.12 12.62 55.69 13.04 56.16 13.59C56.62 14.13 56.98 14.78 57.22 15.52C57.45 16.28 57.58 17.09 57.58 17.97C57.58 18.21 57.57 18.47 57.55 18.73C57.54 19 57.51 19.23 57.5 19.41L48.48 19.41L48.48 19.43ZM20.14 16.69C20.14 15.67 19.88 14.96 19.36 14.56C18.85 14.17 18.1 13.97 17.12 13.97C16.51 13.97 15.95 14.01 15.42 14.11C14.9 14.21 14.39 14.32 13.88 14.48C13.55 13.91 13.39 13.23 13.39 12.44C13.98 12.25 14.62 12.1 15.33 12C16.03 11.9 16.71 11.84 17.37 11.84C19.09 11.84 20.4 12.24 21.3 13.02C22.2 13.8 22.65 15.06 22.65 16.78L22.65 25.08C22.05 25.22 21.32 25.36 20.45 25.51C19.59 25.66 18.71 25.72 17.82 25.72C16.97 25.72 16.21 25.65 15.53 25.49C14.85 25.33 14.27 25.09 13.79 24.74C13.32 24.4 12.95 23.96 12.69 23.42C12.43 22.88 12.3 22.24 12.3 21.48C12.3 20.75 12.45 20.09 12.76 19.53C13.05 18.97 13.46 18.5 13.99 18.14Q14.76 17.58 15.77 17.31C16.44 17.13 17.15 17.04 17.9 17.04C18.45 17.04 18.9 17.05 19.25 17.07C19.6 17.1 19.9 17.13 20.15 17.16L20.15 16.69L20.14 16.69ZM25.44 12.16C25.61 12.13 25.79 12.1 25.97 12.09Q26.24 12.07 26.53 12.07C26.7 12.07 26.88 12.08 27.08 12.09C27.26 12.1 27.45 12.13 27.62 12.16C27.63 12.2 27.66 12.31 27.69 12.48C27.71 12.66 27.74 12.86 27.76 13.07C27.78 13.27 27.81 13.47 27.83 13.66C27.86 13.86 27.87 13.97 27.87 14.03C28.04 13.75 28.25 13.48 28.49 13.22C28.73 12.96 29.02 12.73 29.35 12.52C29.69 12.31 30.07 12.15 30.49 12.03C30.92 11.91 31.39 11.85 31.9 11.85C32.68 11.85 33.4 11.98 34.06 12.24C34.73 12.5 35.29 12.89 35.77 13.44C36.25 13.98 36.61 14.67 36.88 15.51C37.15 16.34 37.28 17.33 37.28 18.47C37.28 20.75 36.66 22.53 35.43 23.82C34.2 25.1 32.45 25.75 30.2 25.75C29.82 25.75 29.43 25.72 29.03 25.67C28.64 25.62 28.29 25.55 28 25.46L28 31.54C27.79 31.58 27.57 31.6 27.34 31.62C27.1 31.63 26.89 31.64 26.7 31.64C26.52 31.64 26.3 31.63 26.07 31.62C25.84 31.6 25.62 31.57 25.44 31.54L25.44 12.16L25.44 12.16ZM60.41 12.16C60.6 12.13 60.78 12.1 60.96 12.09C61.13 12.07 61.31 12.07 61.5 12.07C61.69 12.07 61.88 12.07 62.07 12.09C62.25 12.1 62.43 12.13 62.58 12.16C62.63 12.42 62.68 12.76 62.74 13.18C62.79 13.61 62.81 13.97 62.81 14.26C63.18 13.67 63.65 13.16 64.25 12.73C64.84 12.3 65.6 12.08 66.54 12.08C66.68 12.08 66.82 12.09 66.96 12.1C67.11 12.1 67.23 12.12 67.33 12.13C67.37 12.29 67.39 12.45 67.41 12.63C67.42 12.8 67.43 12.98 67.43 13.17C67.43 13.38 67.41 13.59 67.39 13.82C67.37 14.04 67.33 14.26 67.3 14.47C67.16 14.43 67.02 14.41 66.88 14.41L66.53 14.41C66.07 14.41 65.62 14.48 65.19 14.61C64.77 14.73 64.39 14.96 64.05 15.29C63.72 15.62 63.45 16.07 63.25 16.64C63.05 17.21 62.95 17.94 62.95 18.84L62.95 25.43C62.77 25.47 62.55 25.49 62.32 25.51C62.09 25.52 61.87 25.53 61.69 25.53C61.5 25.53 61.28 25.52 61.05 25.51C60.82 25.49 60.6 25.46 60.39 25.43L60.39 12.16L60.41 12.16ZM0 25.07L6.98 14.21L0.82 14.21C0.77 13.89 0.75 13.55 0.75 13.17C0.75 12.8 0.77 12.47 0.82 12.16L10.78 12.16L10.91 12.5L3.88 23.38L10.47 23.38C10.52 23.73 10.54 24.08 10.54 24.44C10.54 24.78 10.52 25.11 10.47 25.42L0.12 25.42L0 25.07ZM40.47 14.18L38.79 14.18C38.75 14.03 38.73 13.88 38.71 13.7C38.7 13.52 38.69 13.34 38.69 13.17C38.69 13 38.7 12.82 38.71 12.64C38.73 12.46 38.76 12.3 38.79 12.16L42.98 12.16L42.98 25.43C42.79 25.47 42.58 25.49 42.35 25.51C42.12 25.52 41.9 25.53 41.71 25.53C41.54 25.53 41.34 25.52 41.1 25.51C40.87 25.49 40.66 25.46 40.47 25.43L40.47 14.18ZM55.06 17.51C55.06 17.03 54.99 16.57 54.86 16.13C54.74 15.69 54.54 15.31 54.3 14.98C54.04 14.65 53.73 14.39 53.34 14.19C52.95 13.99 52.49 13.89 51.96 13.89C50.91 13.89 50.1 14.21 49.54 14.85C48.98 15.49 48.63 16.37 48.51 17.51L55.06 17.51ZM28.01 23.26C28.33 23.38 28.67 23.47 29.01 23.52C29.35 23.57 29.8 23.59 30.36 23.59C30.98 23.59 31.55 23.5 32.07 23.29C32.58 23.09 33.03 22.79 33.4 22.38C33.77 21.96 34.06 21.44 34.28 20.81C34.49 20.19 34.6 19.43 34.6 18.58Q34.6 16.51 33.84 15.29C33.33 14.48 32.5 14.08 31.34 14.08C30.91 14.08 30.5 14.15 30.1 14.31C29.7 14.47 29.35 14.7 29.04 15.01C28.73 15.32 28.48 15.71 28.29 16.19C28.1 16.66 28.01 17.22 28.01 17.88L28.01 23.26ZM20.14 19.2C19.88 19.16 19.55 19.13 19.16 19.09C18.76 19.05 18.43 19.04 18.15 19.04C17.08 19.04 16.27 19.24 15.71 19.64C15.15 20.03 14.87 20.63 14.87 21.45C14.87 21.96 14.96 22.37 15.15 22.66C15.33 22.95 15.57 23.17 15.86 23.33C16.14 23.49 16.45 23.58 16.8 23.61C17.14 23.65 17.47 23.67 17.79 23.67C18.18 23.67 18.59 23.64 19.01 23.6C19.44 23.55 19.81 23.49 20.14 23.41L20.14 19.2Z" fill="#4C4C4D" fill-opacity="1.000000" fill-rule="evenodd"/>
	</g>
</svg>
