<svg width="69.416626" height="34.000000" viewBox="0 0 69.4166 34" fill="none" xmlns="http://www.w3.org/2000/svg" xmlns:xlink="http://www.w3.org/1999/xlink">
	<desc>
			Created with Pixso.
	</desc>
	<defs>
		<clipPath id="clip1_69">
			<rect id="Logo" rx="0.000000" width="68.536644" height="33.119999" transform="translate(0.440000 0.440000)" fill="white" fill-opacity="0"/>
		</clipPath>
	</defs>
	<rect id="Logo" rx="0.000000" width="68.536644" height="33.119999" transform="translate(0.440000 0.440000)" fill="#FFFFFF" fill-opacity="0"/>
	<g clip-path="url(#clip1_69)">
		<path id="Vector" d="M56.45 14.59C56.72 15.04 56.81 15.56 56.83 16.15L56.87 16.93L56.87 22.38L56.91 23.16C56.99 24.44 57.93 25.38 59.21 25.46L59.99 25.5L59.99 16.93L60.03 16.15C60.06 15.57 60.14 15.04 60.41 14.58C60.69 14.11 61.08 13.72 61.56 13.44C62.03 13.17 62.57 13.03 63.11 13.03C63.66 13.03 64.19 13.18 64.67 13.45C65.14 13.72 65.53 14.12 65.81 14.59C66.07 15.05 66.15 15.58 66.18 16.15L66.22 16.93L66.22 22.38L66.26 23.16C66.34 24.44 67.27 25.38 68.56 25.46L69.34 25.5L69.34 16.15C69.34 14.5 68.68 12.91 67.51 11.74C66.35 10.57 64.76 9.92 63.11 9.91C62.22 9.91 61.35 10.1 60.54 10.47C59.74 10.83 59.02 11.36 58.43 12.03C57.85 11.36 57.13 10.83 56.32 10.47C55.52 10.1 54.64 9.91 53.76 9.91C52.46 9.91 51.26 10.31 50.27 10.99C49.66 10.31 48.3 9.91 47.52 9.91L47.52 25.5L48.3 25.46C49.61 25.37 50.55 24.46 50.6 23.16L50.64 22.38L50.64 16.93L50.68 16.15C50.71 15.56 50.79 15.04 51.06 14.58C51.33 14.11 51.73 13.72 52.2 13.45C52.67 13.17 53.21 13.03 53.76 13.03C54.3 13.03 54.84 13.17 55.31 13.45C55.79 13.72 56.18 14.11 56.45 14.59ZM3.11 25.46L3.89 25.5L15.58 25.5L15.54 24.72C15.43 23.44 14.53 22.5 13.24 22.42L12.46 22.38L5.45 22.38L14.8 13.03L14.76 12.25C14.7 10.96 13.75 10.02 12.46 9.95L11.68 9.92L-0.01 9.91L0.03 10.69C0.14 11.96 1.06 12.92 2.33 12.99L3.11 13.03L10.12 13.03L0.77 22.38L0.81 23.16C0.89 24.45 1.82 25.38 3.11 25.46L3.11 25.46ZM44.46 12.2C45.19 12.92 45.76 13.78 46.15 14.72C46.54 15.67 46.75 16.68 46.75 17.7C46.75 18.73 46.54 19.74 46.15 20.69C45.76 21.63 45.19 22.49 44.46 23.21C43 24.68 41.02 25.5 38.95 25.5C36.89 25.5 34.9 24.68 33.44 23.21C30.4 20.17 30.4 15.24 33.44 12.2C34.16 11.47 35.02 10.9 35.97 10.51C36.91 10.12 37.92 9.91 38.95 9.91C39.97 9.91 40.99 10.11 41.93 10.51C42.88 10.9 43.74 11.47 44.46 12.2L44.46 12.2ZM42.26 14.4C43.13 15.28 43.63 16.47 43.63 17.71C43.63 18.95 43.13 20.14 42.26 21.01C41.38 21.89 40.19 22.38 38.95 22.38C37.71 22.38 36.52 21.89 35.65 21.01C34.77 20.14 34.28 18.95 34.28 17.71C34.28 16.47 34.77 15.28 35.65 14.4C36.52 13.53 37.71 13.03 38.95 13.03C40.19 13.03 41.38 13.53 42.26 14.4ZM22.6 9.91C23.62 9.91 24.63 10.12 25.58 10.51C26.52 10.9 27.38 11.47 28.1 12.2C31.14 15.24 31.14 20.17 28.1 23.21C26.64 24.68 24.66 25.5 22.59 25.5C20.52 25.5 18.54 24.68 17.08 23.21C14.04 20.17 14.04 15.24 17.08 12.2C17.8 11.47 18.66 10.9 19.61 10.51C20.55 10.12 21.56 9.91 22.59 9.91L22.6 9.91ZM25.9 14.4C26.77 15.28 27.27 16.47 27.27 17.71C27.27 18.95 26.77 20.14 25.9 21.01C25.02 21.89 23.83 22.38 22.59 22.38C21.35 22.38 20.16 21.89 19.28 21.01C18.41 20.14 17.92 18.95 17.92 17.71C17.92 16.47 18.41 15.28 19.28 14.4C20.16 13.52 21.35 13.03 22.59 13.03C23.83 13.03 25.02 13.52 25.9 14.4L25.9 14.4Z" fill="#4C4C4D" fill-opacity="1.000000" fill-rule="evenodd"/>
	</g>
</svg>
